<svg width="14" height="14" viewBox="0 0 14 14" fill="none" xmlns="http://www.w3.org/2000/svg">
<path d="M8.58218 1.33512L8.53131 1.28982C8.30236 1.10863 7.96875 1.12373 7.75723 1.33512L7.71191 1.38596C7.53061 1.61477 7.54571 1.94811 7.75723 2.15949L8.51492 2.91607L5.24954 2.91619L5.10918 2.91856C2.91927 2.99248 1.16667 4.78981 1.16667 6.9962C1.16667 7.83894 1.42236 8.62201 1.86004 9.27021C1.96598 9.41686 2.13851 9.51229 2.33334 9.51229C2.6555 9.51229 2.91667 9.25131 2.91667 8.92937C2.91667 8.80331 2.87661 8.68653 2.8089 8.59179L2.73005 8.46457C2.47786 8.03343 2.33334 7.53164 2.33334 6.9962C2.33334 5.38675 3.63897 4.08204 5.24954 4.08204L8.51376 4.08192L7.75723 4.83873L7.71191 4.88957C7.53061 5.11838 7.54571 5.45172 7.75723 5.66311C7.98502 5.89073 8.35439 5.89073 8.58218 5.66311L10.3352 3.9113L10.3805 3.86046C10.5618 3.63165 10.5467 3.29831 10.3352 3.08692L8.58218 1.33512ZM12.1255 4.70174C12.0187 4.56604 11.8528 4.47889 11.6667 4.47889C11.3445 4.47889 11.0833 4.73988 11.0833 5.06182C11.0833 5.18326 11.1205 5.29602 11.1835 5.38907C11.4889 5.84978 11.6667 6.40225 11.6667 6.9962C11.6667 8.60562 10.3611 9.91036 8.75047 9.91036L5.49209 9.91001L6.24675 9.15669L6.29551 9.10145C6.45943 8.89046 6.45826 8.5929 6.29207 8.38319L6.24675 8.33233L6.19145 8.28356C5.98034 8.11976 5.68255 8.12093 5.47266 8.287L5.42178 8.33233L3.66874 10.0841L3.61995 10.1394C3.45605 10.3504 3.45721 10.6479 3.62342 10.8577L3.66874 10.9085L5.42178 12.6603L5.47673 12.7088C5.70557 12.8866 6.03646 12.8704 6.24675 12.6603C6.45826 12.4489 6.47337 12.1156 6.29207 11.8868L6.24675 11.8359L5.48626 11.0759L8.75047 11.0762L8.89082 11.0738C11.0808 10.9999 12.8333 9.2026 12.8333 6.9962C12.8333 6.14459 12.5722 5.35388 12.1256 4.69971L12.1255 4.70174Z" fill="white"/>
</svg>
