<svg width="24" height="24" viewBox="0 0 24 24" fill="none" xmlns="http://www.w3.org/2000/svg">
<g clip-path="url(#clip0_10_2)">
<rect width="24" height="24" rx="12" fill="white"/>
<path opacity="0.4" d="M24 12.0058C24 18.6165 18.6139 24 12 24C5.3861 24 0 18.6165 0 12.0058C0 5.3835 5.3861 0 12 0C18.6139 0 24 5.3835 24 12.0058Z" fill="white"/>
<path d="M16.8 12.0058C16.8 12.3091 16.7046 12.6136 16.5136 12.8574C16.4779 12.9052 16.3108 13.1023 16.1796 13.2306L16.108 13.3006C15.1057 14.3633 12.612 15.9613 11.3472 16.4734C11.3472 16.4851 10.5955 16.7895 10.2375 16.8H10.1898C9.64094 16.8 9.12788 16.4979 8.86538 16.008C8.72216 15.7386 8.59094 14.957 8.579 14.9465C8.4716 14.2455 8.40002 13.1723 8.40002 11.9942C8.40002 10.7589 8.4716 9.63793 8.60288 8.94973C8.60288 8.93803 8.7341 8.30815 8.81762 8.09821C8.9489 7.79605 9.18752 7.53829 9.48584 7.37497C9.72446 7.25947 9.97502 7.20001 10.2375 7.20001C10.512 7.21285 11.025 7.38667 11.2279 7.46827C12.5642 7.98157 15.1176 9.66127 16.096 10.6878C16.2631 10.8511 16.4421 11.0505 16.4898 11.096C16.6926 11.3526 16.8 11.6676 16.8 12.0058Z" fill="#FF6B00"/>
</g>
<defs>
<clipPath id="clip0_10_2">
<rect width="24" height="24" rx="12" fill="white"/>
</clipPath>
</defs>
</svg>
