<svg width="28" height="28" viewBox="0 0 28 28" fill="none" xmlns="http://www.w3.org/2000/svg">
<g clip-path="url(#clip0_17_161)">
<rect width="28" height="28" rx="14" fill="white"/>
<path opacity="0.4" d="M27.5 14.0067C27.5 21.4429 21.4403 27.5 14 27.5C6.5597 27.5 0.5 21.4429 0.5 14.0067C0.5 6.55681 6.56001 0.5 14 0.5C21.44 0.5 27.5 6.55681 27.5 14.0067Z" stroke="#828181"/>
<path d="M19.6 14.0068C19.6 14.3606 19.4886 14.7158 19.2659 15.0002C19.2242 15.056 19.0293 15.286 18.8761 15.4357L18.7926 15.5174C17.6233 16.7572 14.7139 18.6215 13.2383 19.219C13.2383 19.2326 12.3614 19.5878 11.9437 19.6H11.8881C11.2477 19.6 10.6492 19.2476 10.3429 18.676C10.1758 18.3616 10.0227 17.4498 10.0088 17.4376C9.8835 16.6197 9.79999 15.3677 9.79999 13.9932C9.79999 12.5521 9.8835 11.2442 10.0367 10.4413C10.0367 10.4277 10.1897 9.69284 10.2872 9.44791C10.4403 9.09539 10.7187 8.79467 11.0668 8.60413C11.3452 8.46938 11.6375 8.40001 11.9437 8.40001C12.2639 8.41499 12.8625 8.61778 13.0992 8.71298C14.6582 9.31183 17.6372 11.2715 18.7787 12.469C18.9736 12.6596 19.1824 12.8923 19.2381 12.9453C19.4747 13.2447 19.6 13.6121 19.6 14.0068Z" fill="#FF6B00"/>
</g>
<defs>
<clipPath id="clip0_17_161">
<rect width="28" height="28" rx="14" fill="white"/>
</clipPath>
</defs>
</svg>
