<svg width="24" height="24" viewBox="0 0 24 24" fill="none" xmlns="http://www.w3.org/2000/svg">
<g clip-path="url(#clip0_17_8)">
<rect width="24" height="24" rx="12" fill="white"/>
<path opacity="0.4" d="M24 12.0058C24 18.6165 18.6139 24 12 24C5.3861 24 0 18.6165 0 12.0058C0 5.3835 5.3861 0 12 0C18.6139 0 24 5.3835 24 12.0058Z" fill="white"/>
<path d="M16.8 12.0058C16.8 12.3091 16.7045 12.6136 16.5136 12.8574C16.4779 12.9052 16.3108 13.1023 16.1795 13.2306L16.108 13.3006C15.1057 14.3633 12.6119 15.9613 11.3471 16.4734C11.3471 16.4851 10.5955 16.7895 10.2375 16.8H10.1898C9.64091 16.8 9.12785 16.4979 8.86535 16.008C8.72213 15.7386 8.59091 14.957 8.57897 14.9465C8.47157 14.2455 8.39999 13.1723 8.39999 11.9942C8.39999 10.7589 8.47157 9.63793 8.60285 8.94973C8.60285 8.93803 8.73407 8.30815 8.81759 8.09821C8.94887 7.79605 9.18749 7.53829 9.48581 7.37497C9.72443 7.25947 9.97499 7.20001 10.2375 7.20001C10.5119 7.21285 11.025 7.38667 11.2279 7.46827C12.5642 7.98157 15.1176 9.66127 16.096 10.6878C16.2631 10.8511 16.442 11.0505 16.4898 11.096C16.6926 11.3526 16.8 11.6676 16.8 12.0058Z" fill="#FF6B00"/>
</g>
<defs>
<clipPath id="clip0_17_8">
<rect width="24" height="24" rx="12" fill="white"/>
</clipPath>
</defs>
</svg>
