<svg width="17" height="17" viewBox="0 0 17 17" fill="none" xmlns="http://www.w3.org/2000/svg">
<path d="M11.0963 1.47763C11.0633 1.68512 11.0468 1.89262 11.0468 2.10012C11.0468 3.96759 12.5484 5.47734 14.3964 5.47734C14.6026 5.47734 14.8006 5.45327 15.0069 5.42007V12.1172C15.0069 14.9317 13.3569 16.6 10.5518 16.6H4.45586C1.65001 16.6 0 14.9317 0 12.1172V5.97616C0 3.1542 1.65001 1.47763 4.45586 1.47763H11.0963ZM11.2622 6.52395C11.0386 6.49905 10.8167 6.59865 10.6838 6.78125L8.68815 9.37911L6.40206 7.56974C6.26181 7.46184 6.0968 7.41951 5.9318 7.43694C5.76763 7.46184 5.61913 7.55231 5.5193 7.6851L3.0781 10.8814L3.02778 10.9561C2.88753 11.2209 2.95353 11.5611 3.20103 11.7446C3.31653 11.8193 3.44028 11.8691 3.58053 11.8691C3.77111 11.8774 3.95179 11.7769 4.06729 11.6201L6.13805 8.93839L8.48933 10.7154L8.56358 10.7644C8.82758 10.9055 9.15758 10.8399 9.34733 10.5901L11.7316 7.49504L11.6986 7.51164C11.8306 7.32904 11.8554 7.09664 11.7646 6.88915C11.6747 6.68165 11.4759 6.54055 11.2622 6.52395ZM14.512 0C15.6092 0 16.5002 0.896387 16.5002 2.00027C16.5002 3.10415 15.6092 4.00054 14.512 4.00054C13.4147 4.00054 12.5237 3.10415 12.5237 2.00027C12.5237 0.896387 13.4147 0 14.512 0Z" fill="#828181"/>
</svg>
