<svg width="15" height="17" viewBox="0 0 15 17" fill="none" xmlns="http://www.w3.org/2000/svg">
<path d="M8.06686 0C8.27979 0 8.44359 0.1743 8.44359 0.3818V3.0544C8.44359 4.5733 9.68023 5.8183 11.179 5.8266C11.8014 5.8266 12.2928 5.8349 12.6695 5.8349L12.809 5.83429C13.0608 5.83236 13.3997 5.8266 13.6932 5.8266C13.8979 5.8266 14.0617 5.9926 14.0617 6.2001V12.8733C14.0617 14.9317 12.4156 16.6 10.3846 16.6H3.86554C1.73622 16.6 0 14.8487 0 12.6907V3.7433C0 1.6849 1.65432 0 3.69356 0H8.06686ZM8.94316 10.707H4.48796C4.15218 10.707 3.87373 10.9809 3.87373 11.3212C3.87373 11.6615 4.15218 11.9437 4.48796 11.9437H8.94316C9.27894 11.9437 9.55739 11.6615 9.55739 11.3212C9.55739 10.9809 9.27894 10.707 8.94316 10.707ZM7.25608 6.557H4.48796C4.15218 6.557 3.87373 6.8392 3.87373 7.1795C3.87373 7.5198 4.15218 7.7937 4.48796 7.7937H7.25608C7.59186 7.7937 7.87031 7.5198 7.87031 7.1795C7.87031 6.8392 7.59186 6.557 7.25608 6.557ZM9.63699 0.75198C9.63699 0.39425 10.0653 0.21663 10.3102 0.47476C11.1955 1.40768 12.7425 3.03863 13.6074 3.94997C13.8465 4.20146 13.6712 4.61895 13.3265 4.61978C12.6533 4.62227 11.8597 4.61978 11.2889 4.61397C10.3831 4.61397 9.63699 3.85784 9.63699 2.93986V0.75198Z" fill="#828181"/>
</svg>
