<svg width="18" height="22" viewBox="0 0 18 22" fill="none" xmlns="http://www.w3.org/2000/svg">
<path d="M10.3261 0C10.5987 0 10.8084 0.222353 10.8084 0.487059V3.89647C10.8084 5.83412 12.3914 7.42235 14.3098 7.43294C15.1066 7.43294 15.7356 7.44353 16.2178 7.44353C16.5428 7.44353 17.0775 7.43294 17.5282 7.43294C17.7903 7.43294 18 7.64471 18 7.90941V16.4224C18 19.0482 15.8928 21.1765 13.2825 21.1765H4.94817C2.22248 21.1765 0 18.9424 0 16.1894V4.77529C0 2.14941 2.11765 0 4.72801 0H10.3261ZM8.80606 8.22706C8.37624 8.22706 8.0198 8.57647 8.0198 9.01059V10.8424H6.21666C5.78684 10.8424 5.4304 11.1918 5.4304 11.6365C5.4304 12.0706 5.78684 12.42 6.21666 12.42H8.0198V14.2518C8.0198 14.6859 8.37624 15.0353 8.80606 15.0353C9.23588 15.0353 9.58183 14.6859 9.58183 14.2518V12.42H11.3955C11.8253 12.42 12.1817 12.0706 12.1817 11.6365C12.1817 11.1918 11.8253 10.8424 11.3955 10.8424H9.58183V9.01059C9.58183 8.57647 9.23588 8.22706 8.80606 8.22706ZM12.3349 0.959506C12.3349 0.503153 12.8832 0.276565 13.1966 0.605859C14.3299 1.79598 16.3102 3.87656 17.4172 5.03915C17.7233 5.35998 17.499 5.89256 17.0576 5.89362C16.1959 5.8968 15.1801 5.89362 14.4494 5.88621C13.2899 5.88621 12.3349 4.92162 12.3349 3.75057V0.959506Z" fill="#828181"/>
</svg>
