<svg width="16" height="17" viewBox="0 0 16 17" fill="none" xmlns="http://www.w3.org/2000/svg">
<path d="M5.50623 15.5801V13.0425C5.50623 12.3947 6.03521 11.8696 6.68773 11.8696H9.07302C9.38638 11.8696 9.6869 11.9931 9.90847 12.2131C10.13 12.4331 10.2545 12.7314 10.2545 13.0425V15.5801C10.2525 15.8494 10.3589 16.1083 10.5501 16.2995C10.7412 16.4906 11.0013 16.5981 11.2725 16.5981H12.8999C13.6599 16.6 14.3895 16.3017 14.9276 15.7689C15.4658 15.236 15.7682 14.5125 15.7682 13.758V6.52874C15.7682 5.91926 15.496 5.34114 15.0251 4.95011L9.48915 0.560907C8.52616 -0.20867 7.1464 -0.183822 6.21216 0.619921L0.802528 4.95011C0.309339 5.32961 0.0145667 5.90945 0 6.52874V13.7506C0 15.3232 1.28418 16.5981 2.86829 16.5981H4.45849C5.02194 16.5981 5.47986 16.1468 5.48394 15.5875L5.50623 15.5801Z" fill="#FF6B00"/>
</svg>
