<svg width="14" height="17" viewBox="0 0 14 17" fill="none" xmlns="http://www.w3.org/2000/svg">
<path d="M7.62169 0C7.82287 0 7.97763 0.1743 7.97763 0.3818V3.0544C7.97763 4.5733 9.14603 5.8183 10.562 5.8266C11.1501 5.8266 11.6144 5.8349 11.9703 5.8349C12.2102 5.8349 12.6048 5.8266 12.9375 5.8266C13.131 5.8266 13.2857 5.9926 13.2857 6.2001V12.8733C13.2857 14.9317 11.7304 16.6 9.80374 16.6H3.65222C1.6404 16.6 0 14.8487 0 12.6907V3.7433C0 1.6849 1.56303 0 3.48973 0H7.62169ZM8.41094 8.4992H4.58849C4.27124 8.4992 4.00816 8.7731 4.00816 9.1217C4.00816 9.462 4.27124 9.7359 4.58849 9.7359H8.41094C8.72819 9.7359 8.99127 9.462 8.99127 9.1217C8.99127 8.7731 8.72819 8.4992 8.41094 8.4992ZM9.10432 0.752146C9.10432 0.394416 9.50901 0.216796 9.74037 0.474926C10.5768 1.40785 12.0385 3.0388 12.8556 3.95014C13.0815 4.20163 12.9159 4.61912 12.5902 4.61995C11.9541 4.62244 11.2044 4.61995 10.665 4.61414C9.80923 4.61414 9.10432 3.85801 9.10432 2.94003V0.752146Z" fill="#828181"/>
</svg>
