<svg width="17" height="18" viewBox="0 0 17 18" fill="none" xmlns="http://www.w3.org/2000/svg">
<path d="M12.9637 13.5569C13.2845 13.2383 13.7987 13.2383 14.1195 13.5569L16.2396 15.2683H16.2764C16.7053 15.7018 16.7053 16.4048 16.2764 16.8383C15.8475 17.2718 15.152 17.2718 14.7231 16.8383L12.9637 14.8219L12.8969 14.7465C12.7726 14.5891 12.7039 14.3928 12.7039 14.1894C12.7039 13.952 12.7974 13.7245 12.9637 13.5569ZM7.11862 0.565369C9.0066 0.565369 10.8172 1.32343 12.1522 2.6728C13.4873 4.02216 14.2372 5.85229 14.2372 7.76058C14.2372 11.7344 11.0501 14.9558 7.11862 14.9558C3.18712 14.9558 0 11.7344 0 7.76058C0 3.78677 3.18712 0.565369 7.11862 0.565369Z" fill="#828181"/>
</svg>
