<svg width="15" height="17" viewBox="0 0 15 17" fill="none" xmlns="http://www.w3.org/2000/svg">
<path d="M7.89053 0C8.47456 0 9.00335 0.3486 9.29537 0.8632C9.43743 1.1122 9.53214 1.4193 9.50846 1.743C9.49268 1.992 9.56371 2.241 9.68999 2.4734C10.0925 3.1789 10.9843 3.4445 11.6789 3.0461C12.4602 2.5647 13.4467 2.8552 13.8966 3.6769L14.4254 4.6563C14.8831 5.478 14.6306 6.5321 13.8414 7.0052C13.1705 7.4285 12.9337 8.3664 13.3362 9.0802C13.4625 9.3043 13.6046 9.4952 13.8256 9.6114C14.1018 9.7691 14.3149 10.0181 14.4649 10.2671C14.7569 10.7817 14.7332 11.4125 14.4491 11.9686L13.8966 12.9646C13.6046 13.4958 13.06 13.8278 12.4997 13.8278C12.2234 13.8278 11.9156 13.7448 11.6631 13.5788C11.4579 13.4377 11.2211 13.3879 10.9685 13.3879C10.1872 13.3879 9.53214 14.0768 9.50846 14.8985C9.50846 15.853 8.78237 16.6 7.87475 16.6H6.80139C5.88588 16.6 5.15978 15.853 5.15978 14.8985C5.144 14.0768 4.48893 13.3879 3.70759 13.3879C3.44714 13.3879 3.21037 13.4377 3.01306 13.5788C2.76051 13.7448 2.44481 13.8278 2.17647 13.8278C1.60822 13.8278 1.06365 13.4958 0.771637 12.9646L0.227065 11.9686C-0.0649519 11.4291 -0.0807366 10.7817 0.21128 10.2671C0.337558 10.0181 0.574328 9.7691 0.842668 9.6114C1.06365 9.4952 1.20572 9.3043 1.33989 9.0802C1.7345 8.3664 1.49773 7.4285 0.826883 7.0052C0.0455409 6.5321 -0.207014 5.478 0.242849 4.6563L0.771637 3.6769C1.22939 2.8552 2.20804 2.5647 2.99728 3.0461C3.68391 3.4445 4.57575 3.1789 4.97826 2.4734C5.10453 2.241 5.17556 1.992 5.15978 1.743C5.144 1.4193 5.23081 1.1122 5.38077 0.8632C5.67278 0.3486 6.20157 0.0166 6.77771 0H7.89053ZM7.34596 5.9594C6.10686 5.9594 5.10453 7.0052 5.10453 8.3083C5.10453 9.6114 6.10686 10.6489 7.34596 10.6489C8.58506 10.6489 9.56371 9.6114 9.56371 8.3083C9.56371 7.0052 8.58506 5.9594 7.34596 5.9594Z" fill="#828181"/>
</svg>
