<svg width="17" height="17" viewBox="0 0 17 17" fill="none" xmlns="http://www.w3.org/2000/svg">
<path d="M8.29905 0.130798C12.8801 0.130798 16.5981 3.84877 16.5981 8.42984C16.5981 13.0192 12.8801 16.7289 8.29905 16.7289C3.70967 16.7289 0 13.0192 0 8.42984C0 3.84877 3.70967 0.130798 8.29905 0.130798ZM11.4942 5.69946C11.5855 5.40899 11.3199 5.13512 11.0294 5.22641L6.78032 6.55426C6.60604 6.61235 6.46496 6.74514 6.41516 6.91942L5.08732 11.1768C4.99603 11.459 5.26989 11.7329 5.55206 11.6416L9.78458 10.3137C9.95886 10.2639 10.0999 10.1229 10.1497 9.94857L11.4942 5.69946Z" fill="#828181"/>
</svg>
