<svg width="14" height="18" viewBox="0 0 14 18" fill="none" xmlns="http://www.w3.org/2000/svg">
<path d="M9.18704 0.696136C11.4361 0.696136 13.2536 1.58413 13.2785 3.84148V16.4394C13.2785 16.5805 13.2453 16.7216 13.1789 16.8461C13.071 17.0453 12.8884 17.1946 12.6643 17.261C12.4486 17.3274 12.2079 17.2942 12.0087 17.178L6.63094 14.4892L1.24486 17.178C1.1212 17.2436 0.979287 17.2859 0.838204 17.2859C0.373457 17.2859 0 16.9042 0 16.4394V3.84148C0 1.58413 1.82579 0.696136 4.06653 0.696136H9.18704ZM9.75138 5.70876H3.5022C3.14534 5.70876 2.85487 5.99923 2.85487 6.36438C2.85487 6.72871 3.14534 7.02001 3.5022 7.02001H9.75138C10.1082 7.02001 10.3987 6.72871 10.3987 6.36438C10.3987 5.99923 10.1082 5.70876 9.75138 5.70876Z" fill="#828181"/>
</svg>
