<svg width="15" height="17" viewBox="0 0 15 17" fill="none" xmlns="http://www.w3.org/2000/svg">
<path d="M8.06686 0C8.27979 0 8.44359 0.1743 8.44359 0.3818V3.0544C8.44359 4.5733 9.68023 5.8183 11.179 5.8266C11.8014 5.8266 12.2928 5.8349 12.6695 5.8349C12.9234 5.8349 13.341 5.8266 13.6932 5.8266C13.8979 5.8266 14.0617 5.9926 14.0617 6.2001V12.8733C14.0617 14.9317 12.4156 16.6 10.3764 16.6H3.86554C1.73622 16.6 0 14.8487 0 12.6907V3.7433C0 1.6849 1.65432 0 3.69356 0H8.06686ZM6.87935 6.4491C6.54358 6.4491 6.26513 6.723 6.26513 7.0633V8.4992H4.8565C4.52072 8.4992 4.24227 8.7731 4.24227 9.1217C4.24227 9.462 4.52072 9.7359 4.8565 9.7359H6.26513V11.1718C6.26513 11.5121 6.54358 11.786 6.87935 11.786C7.21513 11.786 7.48539 11.5121 7.48539 11.1718V9.7359H8.90221C9.23799 9.7359 9.51644 9.462 9.51644 9.1217C9.51644 8.7731 9.23799 8.4992 8.90221 8.4992H7.48539V7.0633C7.48539 6.723 7.21513 6.4491 6.87935 6.4491ZM9.63609 0.752146C9.63609 0.394416 10.0644 0.216796 10.3093 0.474926C11.1946 1.40785 12.7416 3.0388 13.6065 3.95014C13.8456 4.20163 13.6703 4.61912 13.3256 4.61995C12.6524 4.62244 11.8588 4.61995 11.288 4.61414C10.3822 4.61414 9.63609 3.85801 9.63609 2.94003V0.752146Z" fill="#828181"/>
</svg>
