<svg width="17" height="17" viewBox="0 0 17 17" fill="none" xmlns="http://www.w3.org/2000/svg">
<path d="M7.33102 0C9.24825 0 10.8119 1.6517 10.8119 3.6852V7.6609H6.0974C5.75953 7.6609 5.49237 7.9431 5.49237 8.3C5.49237 8.6486 5.75953 8.9391 6.0974 8.9391H10.8119V12.9065C10.8119 14.94 9.24824 16.6 7.31531 16.6H3.48872C1.56364 16.6 0 14.9483 0 12.9148V3.6935C0 1.6517 1.57149 0 3.49658 0H7.33102ZM12.7736 5.43667C13.0053 5.17937 13.3837 5.17937 13.6154 5.42837L15.8705 7.84367C15.9863 7.96817 16.0481 8.12587 16.0481 8.30017C16.0481 8.46617 15.9863 8.63217 15.8705 8.74837L13.6154 11.1637C13.4996 11.2882 13.3451 11.3546 13.1984 11.3546C13.0439 11.3546 12.8895 11.2882 12.7736 11.1637C12.5419 10.9147 12.5419 10.508 12.7736 10.259L14.0093 8.93927H10.812V7.66107H14.0093L12.7736 6.34137C12.5419 6.09237 12.5419 5.68567 12.7736 5.43667Z" fill="#828181"/>
</svg>
