<svg width="16" height="17" viewBox="0 0 16 17" fill="none" xmlns="http://www.w3.org/2000/svg">
<path d="M5.00744 0.000135126C5.50977 0.0168744 5.99616 0.112978 6.4674 0.288586H6.51445C6.54634 0.305185 6.57026 0.323532 6.58621 0.340132C6.76243 0.402163 6.92908 0.472056 7.08855 0.56816L7.39154 0.716684C7.51115 0.786577 7.65467 0.916754 7.73441 0.970048C7.81415 1.02159 7.90185 1.07489 7.97362 1.13517C8.85948 0.393426 9.93512 -0.00846207 11.0435 0.000135126C11.5466 0.000135126 12.0489 0.0780312 12.5265 0.253639C15.4696 1.30204 16.5301 4.84041 15.6442 7.9332C15.1419 9.51367 14.3206 10.9561 13.245 12.1347C11.7053 13.7684 10.0157 15.2187 8.19688 16.4681L7.99754 16.6L7.79022 16.4593C5.96507 15.2187 4.26589 13.7684 2.71184 12.1259C1.64337 10.9474 0.821294 9.51367 0.310984 7.9332C-0.590034 4.84041 0.470456 1.30204 3.44541 0.235292C3.67664 0.147925 3.91505 0.0867679 4.15426 0.0526948H4.24994C4.474 0.0168743 4.69647 0.000135126 4.91973 0.000135126H5.00744ZM12.1119 2.76107C11.785 2.63788 11.4262 2.83096 11.3066 3.19791C11.195 3.56485 11.3704 3.96674 11.7053 4.09691C12.2164 4.30659 12.5584 4.85788 12.5584 5.46857V5.49566C12.5433 5.69573 12.5983 5.88881 12.7099 6.03733C12.8216 6.18586 12.989 6.27235 13.1644 6.2907C13.4914 6.28109 13.7704 5.99365 13.7943 5.62583V5.52187C13.8183 4.29786 13.1413 3.18917 12.1119 2.76107Z" fill="#828181"/>
</svg>
